<?xml version="1.0" standalone="no"?>
<!DOCTYPE svg PUBLIC "-//W3C//DTD SVG 20010904//EN"
 "http://www.w3.org/TR/2001/REC-SVG-20010904/DTD/svg10.dtd">
<svg version="1.0" xmlns="http://www.w3.org/2000/svg"
 width="700.000000pt" height="700.000000pt" viewBox="0 0 700.000000 700.000000"
 preserveAspectRatio="xMidYMid meet">
<metadata>
Created by potrace 1.14, written by Peter Selinger 2001-2017
</metadata>
<g transform="translate(0.000000,700.000000) scale(0.100000,-0.100000)"
fill="#000000" stroke="none">
<path d="M610 4075 c-171 -45 -262 -235 -190 -397 23 -52 60 -93 167 -179 71
-59 368 -262 396 -272 12 -4 5 -26 -104 -332 -124 -347 -129 -372 -81 -478 49
-107 141 -167 259 -169 102 -2 183 39 244 124 17 23 150 380 206 551 9 26 20
47 24 47 8 0 40 -12 84 -31 37 -16 289 -96 376 -119 l86 -22 -13 -72 c-6 -39
-15 -89 -18 -111 -4 -22 -21 -119 -38 -215 -34 -190 -43 -303 -26 -353 20 -57
69 -118 125 -154 48 -30 66 -36 133 -40 69 -5 84 -3 135 21 32 15 73 41 91 60
50 51 72 101 88 196 2 14 11 63 19 110 9 47 18 103 21 125 4 22 8 51 11 65 6
34 13 73 26 150 16 103 21 110 66 100 21 -5 72 -12 113 -16 41 -3 84 -8 94
-10 10 -2 62 -6 115 -10 80 -5 136 -9 184 -13 4 -1 7 -145 7 -321 0 -366 4
-389 82 -469 62 -63 117 -86 208 -86 92 0 149 24 208 86 78 80 82 104 82 469
0 249 3 320 13 321 6 1 28 2 47 3 73 5 216 17 250 21 19 2 60 7 90 10 97 11
134 17 142 21 10 6 25 -32 33 -83 3 -21 8 -50 10 -63 7 -34 11 -57 35 -200 45
-269 50 -293 78 -343 66 -123 214 -178 354 -131 57 19 134 89 163 149 22 46
30 167 15 230 -9 37 -26 129 -36 200 -3 17 -10 57 -16 90 -5 33 -12 74 -15 90
-3 17 -11 62 -17 102 l-13 71 46 12 c25 7 53 13 61 15 45 10 267 82 348 112
51 19 95 33 96 31 2 -1 47 -127 101 -278 54 -151 106 -289 117 -307 10 -17 35
-46 55 -64 145 -126 361 -85 451 86 22 42 27 63 26 130 0 76 -5 94 -101 360
-56 154 -104 291 -108 305 -5 22 1 29 52 59 147 87 372 251 453 332 151 151
88 413 -115 480 -103 34 -208 9 -300 -71 -410 -357 -1064 -623 -1790 -730
-119 -18 -162 -23 -265 -35 -240 -27 -911 -28 -1100 0 -24 3 -80 10 -165 20
-49 5 -163 22 -190 28 -11 3 -40 8 -65 12 -25 4 -56 9 -70 12 -72 12 -370 88
-470 120 -123 38 -280 96 -370 134 -58 25 -303 147 -356 177 -80 46 -267 177
-339 237 -44 37 -99 76 -123 87 -53 24 -132 29 -192 13z"/>
</g>
</svg>
